<svg width="307" height="98" viewBox="0 0 307 98" fill="none" xmlns="http://www.w3.org/2000/svg">
<rect width="307" height="98"/>
<path d="M103.136 71.6953H110.736V36.8235H123.146V30.0207H90.7259V36.8235H103.136V71.6953ZM123.746 71.6953H131.161V57.0479C131.161 50.3371 134.624 46.568 139.711 46.568H142.683V40.1942H139.312C135.206 40.1942 132.326 42.4312 130.855 45.8938V40.1942H123.746V71.6953ZM174.875 55.3932C174.875 46.7212 168.502 39.2443 159.002 39.2443C149.534 39.2443 142.67 46.7518 142.67 55.9448C142.67 65.1377 149.534 72.6452 159.002 72.6452C166.847 72.6452 172.455 67.4666 174.048 61.7976H165.958C164.886 64.4635 162.588 66.0263 158.849 66.0263C154.498 66.0263 150.882 63.054 150.116 57.9059H174.722C174.845 56.7415 174.875 56.1899 174.875 55.3932ZM150.422 52.1757C151.679 47.7324 155.233 45.71 158.972 45.71C163.323 45.71 167 48.6517 167.307 52.1757H150.422ZM209.029 55.3932C209.029 46.7212 202.655 39.2443 193.156 39.2443C183.687 39.2443 176.823 46.7518 176.823 55.9448C176.823 65.1377 183.687 72.6452 193.156 72.6452C201 72.6452 206.608 67.4666 208.202 61.7976H200.112C199.039 64.4635 196.741 66.0263 193.003 66.0263C188.651 66.0263 185.035 63.054 184.269 57.9059H208.876C208.998 56.7415 209.029 56.1899 209.029 55.3932ZM184.576 52.1757C185.832 47.7324 189.387 45.71 193.125 45.71C197.477 45.71 201.154 48.6517 201.46 52.1757H184.576ZM226.206 72.6452C231.477 72.6452 235.246 69.7035 237.115 66.3941V71.6953H244.163V28.5499H236.778V42.0635L236.931 45.3423C235.277 42.3699 231.446 39.2443 226.298 39.2443C217.105 39.2443 210.977 46.7518 210.977 55.9448C210.977 65.199 217.258 72.6452 226.206 72.6452ZM227.555 65.8118C222.131 65.8118 218.27 61.5218 218.27 55.9448C218.27 50.2145 222.315 46.1083 227.555 46.1083C232.764 46.1083 236.839 50.429 236.839 55.9448C236.839 61.5218 232.733 65.8118 227.555 65.8118ZM254.63 35.2913C257.633 35.2913 259.318 33.4221 259.318 31.0319C259.318 28.7337 257.633 26.8032 254.66 26.8032C251.749 26.8032 250.064 28.7337 250.064 31.0319C250.064 33.3915 251.78 35.2913 254.63 35.2913ZM250.983 71.6953H258.399V40.1942H250.983V71.6953ZM276.557 72.6452C284.156 72.6452 289.794 69.2745 289.794 62.3492C289.794 55.669 284.708 53.7691 278.181 52.7885C272.757 51.9305 271.592 51.1644 271.592 48.8049C271.592 46.9051 273.002 45.3116 276.189 45.3116C279.621 45.3116 281.459 46.9663 281.613 49.2952L288.875 49.3565C288.875 43.3505 283.758 39.2443 276.158 39.2443C268.467 39.2443 264.299 43.1666 264.299 48.9581C264.299 55.4851 269.509 57.9059 275.576 58.7026C279.866 59.3462 282.225 60.1122 282.225 62.7782C282.225 65.1683 280.448 66.7618 276.618 66.7618C272.389 66.7618 270.244 64.5861 270.121 61.7057L263.012 61.675C263.012 67.2214 267.302 72.6452 276.557 72.6452Z" fill="black"/>
<path d="M53.477 16.5361L22.789 27.6119C21.9838 27.9024 21.4473 28.6665 21.4473 29.5225V44.3061C21.4473 45.3108 22.4189 46.029 23.3793 45.7343L30.9838 43.4015C31.9442 43.1069 32.9159 43.8251 32.9159 44.8296V78.4025L52.092 71.9679C52.9195 71.6902 53.477 70.915 53.477 70.0421V16.5361Z" fill="#2055FF"/>
<path d="M72.8187 39.851C73.5845 39.5398 74.0852 38.7957 74.0852 37.9692V20.6484L43.319 32.3502C42.5308 32.6499 42.0098 33.4055 42.0098 34.2488V87.8151L61.2834 80.7638C62.0841 80.4707 62.6167 79.7088 62.6167 78.8561V45.364C62.6167 44.5375 63.1176 43.7934 63.8832 43.4822L72.8187 39.851Z" fill="#39F8EA" fill-opacity="0.85"/>
<path d="M53.4785 28.4843V16.536L64.6308 12.5854C65.3803 12.3199 66.2157 12.5161 66.7687 13.0875L74.0854 20.6482L53.4785 28.4843Z" fill="#FD7BF2"/>
<path d="M42.0106 75.3506L32.918 78.4018L42.0106 87.8143V75.3506Z" fill="#FD7BF2"/>
<path fill-rule="evenodd" clip-rule="evenodd" d="M67.0813 12.7467C66.4059 12.0539 65.3916 11.8201 64.4805 12.1428L53.3263 16.0941L53.3258 16.0943L53.3243 16.0948L53.3231 16.0953L22.6378 27.1701C21.655 27.5247 21 28.4575 21 29.5022V44.2859C21 45.5918 22.2631 46.5255 23.5116 46.1425L31.1162 43.8097C31.7885 43.6034 32.4686 44.1062 32.4686 44.8094V77.7785C32.4686 78.282 32.6641 78.7657 33.0139 79.1278L41.0119 87.4072C41.5455 87.9595 42.3546 88.1456 43.0759 87.8817L61.4369 81.1643C62.4144 80.8066 63.0644 79.8766 63.0644 78.8358V45.3436C63.0644 44.6995 63.4548 44.1195 64.0515 43.877L72.987 40.2458C73.9205 39.8665 74.5331 38.9639 74.5331 37.9537V21.2669C74.5331 20.7645 74.3384 20.2816 73.9898 19.9197L67.0887 12.7542L67.0879 12.7535L67.0821 12.7474L67.0813 12.7467ZM66.7658 13.0651C66.213 12.4938 65.3796 12.2998 64.6301 12.5653L53.4818 16.5144L53.4793 16.5154L22.7899 27.5916C21.9848 27.8821 21.4482 28.6463 21.4482 29.5022V44.2859C21.4482 45.2905 22.4198 46.0087 23.3801 45.7141L30.9847 43.3812C31.9452 43.0865 32.9168 43.8048 32.9168 44.8094V77.7785C32.9168 78.1658 33.0672 78.5379 33.3362 78.8164L41.3342 87.0958C41.7448 87.5207 42.3671 87.6638 42.9219 87.4608L61.2829 80.7434C62.0837 80.4504 62.6163 79.6884 62.6163 78.8358V45.3436C62.6163 44.5171 63.1171 43.773 63.8828 43.4618L72.8183 39.8306C73.584 39.5195 74.0849 38.7803 74.0849 37.9537V21.2669C74.0849 20.8804 73.9352 20.509 73.6671 20.2306L66.7725 13.072L66.7723 13.0718L66.7658 13.0651Z" fill="white"/>
</svg>
